<svg viewBox="0 0 32 32" fill="none" xmlns="http://www.w3.org/2000/svg" id="Hospital-Flat--Streamline-Fluent-Emoji" height="32" width="32">
  <desc>
    Hospital Flat Streamline Emoji: https://streamlinehq.com
  </desc>
  <path d="M5 5c0 -1.10457 0.89543 -2 2 -2h15c1.1046 0 2 0.89543 2 2v18L9 30H5V5Z" fill="#998ea4" stroke-width="1"/>
  <path d="M9 21c0 -1.1046 0.89543 -2 2 -2h15c1.1046 0 2 0.8954 2 2v9h-2l-3 -1 -3 1h-2.5l-1.25 -1L15 30h-1.5l-1.25 -1L11 30H9v-9Z" fill="#b4acbc" stroke-width="1"/>
  <path d="M8 3c0 -0.55228 0.44772 -1 1 -1h7c0.5523 0 1 0.44772 1 1v7c0 0.5523 -0.4477 1 -1 1H9c-0.55228 0 -1 -0.4477 -1 -1V3Z" fill="#f3eef8" stroke-width="1"/>
  <path d="M11 21.75c0 -0.4142 0.3358 -0.75 0.75 -0.75h13.5c0.4142 0 0.75 0.3358 0.75 0.75s-0.3358 0.75 -0.75 0.75h-13.5c-0.4142 0 -0.75 -0.3358 -0.75 -0.75Z" fill="#f3eef8" stroke-width="1"/>
  <path d="M11.75 23.5c-0.4142 0 -0.75 0.3358 -0.75 0.75s0.3358 0.75 0.75 0.75h13.5c0.4142 0 0.75 -0.3358 0.75 -0.75s-0.3358 -0.75 -0.75 -0.75h-13.5Z" fill="#f3eef8" stroke-width="1"/>
  <path d="M11.5 28h2v2H11v-1.5c0 -0.2761 0.2239 -0.5 0.5 -0.5Z" fill="#bb1d80" stroke-width="1"/>
  <path d="M15 28h2c0.2761 0 0.5 0.2239 0.5 0.5V30H15v-2Z" fill="#bb1d80" stroke-width="1"/>
  <path d="M20 28.5c0 -0.2761 0.2239 -0.5 0.5 -0.5h5c0.2761 0 0.5 0.2239 0.5 0.5V30h-6v-1.5Z" fill="#bb1d80" stroke-width="1"/>
  <path d="M12.5 3.5c-0.5523 0 -1 0.44772 -1 1v1h-1c-0.55228 0 -1 0.44772 -1 1s0.44772 1 1 1h1v1c0 0.55228 0.4477 1 1 1s1 -0.44772 1 -1v-1h1c0.5523 0 1 -0.44772 1 -1s-0.4477 -1 -1 -1h-1v-1c0 -0.55228 -0.4477 -1 -1 -1Z" fill="#f8312f" stroke-width="1"/>
</svg>